<?xml version="1.0" encoding="utf-8"?>
<!-- Generator: Adobe Illustrator 25.2.1, SVG Export Plug-In . SVG Version: 6.00 Build 0)  -->
<svg version="1.1" id="圖層_1" xmlns="http://www.w3.org/2000/svg" xmlns:xlink="http://www.w3.org/1999/xlink" x="0px" y="0px"
	 viewBox="0 0 128 42" style="enable-background:new 0 0 128 42;" xml:space="preserve">
<style type="text/css">
	.st0{fill:#E56D6D;fill-opacity:0;}
	.st1{fill:#FFFFFF;stroke:#FFFFFF;stroke-width:0.2;stroke-miterlimit:10;}
	.st2{fill:#FFFFFF;}
	.st3{fill:#40BFF2;}
	.st4{fill:url(#Path_4652_1_);}
	.st5{fill:url(#Path_4653_1_);}
	.st6{fill:url(#Path_4654_1_);}
</style>
<g id="icon_app_google" transform="translate(-225 -1535)">
	<rect id="Rectangle_3369" x="225" y="1535" class="st0" width="128" height="42"/>
	<g id="Group_2952" transform="translate(227.589 1542)">
		<g id="Group_2948" transform="translate(33.225 0)">
			<path id="Path_4643" class="st1" d="M6.4,3.6c0,0.8-0.2,1.6-0.8,2.1C5,6.3,4.2,6.7,3.3,6.6C1.5,6.6,0,5.1,0,3.3
				C0,2.4,0.4,1.6,1,1c0.6-0.6,1.5-1,2.3-1c0.4,0,0.9,0.1,1.3,0.3C5,0.4,5.3,0.7,5.6,1L5,1.5C4.6,1,4,0.7,3.3,0.8
				c-1.4,0-2.5,1.1-2.5,2.4c0,0,0,0.1,0,0.1c0,1.4,1.1,2.5,2.5,2.5c0.7,0,1.3-0.2,1.8-0.7c0.3-0.4,0.5-0.8,0.5-1.3H3.3V3.1h3.1
				C6.4,3.3,6.4,3.4,6.4,3.6z"/>
			<path id="Path_4644" class="st1" d="M11.3,0.9H8.4v2H11v0.8H8.4v2h2.9v0.8H7.6V0.1h3.7V0.9z"/>
			<path id="Path_4645" class="st1" d="M14.7,6.5h-0.8V0.9h-1.8V0.1h4.4v0.8h-1.8V6.5z"/>
			<path id="Path_4646" class="st1" d="M19.7,6.5V0.1h0.8v6.4H19.7z"/>
			<path id="Path_4647" class="st1" d="M24.1,6.5h-0.8V0.9h-1.8V0.1h4.4v0.8h-1.8V6.5z"/>
			<path id="Path_4648" class="st1" d="M34.2,5.7c-1.3,1.3-3.4,1.3-4.7,0c-1.2-1.3-1.2-3.4,0-4.7c1.3-1.3,3.4-1.3,4.7,0c0,0,0,0,0,0
				C35.4,2.3,35.4,4.4,34.2,5.7L34.2,5.7z M30.1,5.1c1,1,2.5,1,3.5,0c0.9-1,0.9-2.6,0-3.6c-1-1-2.5-1-3.5,0
				C29.2,2.5,29.2,4.1,30.1,5.1z"/>
			<path id="Path_4649" class="st1" d="M36.2,6.5V0.1h1l3.1,4.9h0l0-1.2V0.1h0.8v6.4h-0.9l-3.2-5.2h0l0,1.2v4L36.2,6.5z"/>
		</g>
		<path id="Path_4650" class="st2" d="M61.6,15.8c-2.5,0-4.5,2-4.5,4.5c0,2.5,2,4.5,4.5,4.5c2.5,0,4.5-2,4.5-4.5
			c0-2.5-1.9-4.5-4.4-4.5C61.7,15.8,61.6,15.8,61.6,15.8z M61.6,23c-1.5,0.1-2.8-1-2.9-2.5s1-2.8,2.5-2.9s2.8,1,2.9,2.5
			c0,0.1,0,0.1,0,0.2C64.2,21.7,63.1,22.9,61.6,23C61.6,23,61.6,23,61.6,23z M51.7,15.8c-2.5,0-4.5,2-4.5,4.5c0,2.5,2,4.5,4.5,4.5
			c2.5,0,4.5-2,4.5-4.5c0-2.5-1.9-4.5-4.4-4.5C51.8,15.8,51.8,15.8,51.7,15.8z M51.7,23c-1.5,0.1-2.8-1-2.9-2.5s1-2.8,2.5-2.9
			s2.8,1,2.9,2.5c0,0.1,0,0.1,0,0.2C54.3,21.7,53.2,22.9,51.7,23C51.8,23,51.7,23,51.7,23z M40,17.1v1.9h4.6c-0.1,0.9-0.4,1.7-1,2.4
			c-0.9,0.9-2.2,1.5-3.5,1.4c-2.8,0-5.1-2.3-5.1-5.1c0-2.8,2.3-5.1,5.1-5.1c1.3,0,2.5,0.5,3.4,1.4l1.3-1.3c-1.3-1.3-3-2-4.8-1.9
			c-3.9-0.1-7,3-7.1,6.9s3,7,6.9,7.1c0.1,0,0.2,0,0.2,0c1.8,0.1,3.6-0.6,4.9-2c1.1-1.2,1.7-2.8,1.7-4.5c0-0.4,0-0.8-0.1-1.2L40,17.1
			z M88,18.6c-0.6-1.7-2.1-2.8-3.9-2.9c-2.4,0-4.3,1.9-4.3,4.3c0,0.1,0,0.1,0,0.2c-0.1,2.4,1.9,4.4,4.3,4.5c0.1,0,0.1,0,0.2,0
			c1.5,0,2.9-0.7,3.8-2l-1.5-1c-0.5,0.8-1.3,1.2-2.2,1.2c-0.9,0-1.8-0.5-2.2-1.4l6-2.5L88,18.6z M81.8,20.1
			c-0.1-1.4,0.9-2.5,2.3-2.6c0,0,0,0,0,0c0.7,0,1.4,0.3,1.7,1L81.8,20.1z M76.9,24.5h2V11.3h-2L76.9,24.5z M73.7,16.8L73.7,16.8
			c-0.7-0.7-1.5-1-2.4-1c-2.5,0.1-4.4,2.2-4.3,4.7c0.1,2.3,2,4.2,4.3,4.3c0.9,0,1.8-0.4,2.4-1h0.1v0.6c0,1.7-0.9,2.6-2.4,2.6
			c-1,0-1.9-0.7-2.3-1.6l-1.7,0.7c0.7,1.6,2.2,2.7,4,2.7c2.3,0,4.3-1.4,4.3-4.7V16h-1.9L73.7,16.8z M71.4,23c-1.5-0.1-2.6-1.5-2.5-3
			c0.1-1.3,1.2-2.4,2.5-2.5c1.4,0.1,2.5,1.3,2.4,2.7c0,0,0,0.1,0,0.1C73.9,21.7,72.9,22.9,71.4,23C71.5,23,71.4,23,71.4,23L71.4,23z
			 M97.2,11.3h-4.7v13.2h2v-5h2.8c2.3,0.1,4.2-1.6,4.3-3.9s-1.6-4.2-3.9-4.3C97.5,11.3,97.4,11.3,97.2,11.3L97.2,11.3z M97.3,17.6
			h-2.8v-4.5h2.8c1.3,0,2.3,1,2.3,2.2C99.6,16.6,98.6,17.6,97.3,17.6C97.3,17.6,97.3,17.6,97.3,17.6z M109.5,15.7
			c-1.5-0.1-2.9,0.7-3.5,2l1.8,0.7c0.4-0.7,1.1-1,1.8-1c1-0.1,2,0.7,2.1,1.7v0.1c-0.6-0.3-1.3-0.5-2.1-0.5c-1.9,0-3.8,1-3.8,3
			c0.1,1.7,1.5,3,3.2,2.9c0,0,0.1,0,0.1,0c1,0.1,2-0.4,2.5-1.3h0.1v1h1.9v-5.1C113.5,17,111.8,15.7,109.5,15.7L109.5,15.7z
			 M109.3,23c-0.6,0-1.6-0.3-1.6-1.1c0-1,1.1-1.4,2.1-1.4c0.6,0,1.3,0.1,1.8,0.4C111.5,22.1,110.5,23,109.3,23L109.3,23z M120.5,16
			l-2.3,5.7h-0.1l-2.4-5.7h-2.1l3.5,8l-2,4.5h2.1l5.4-12.5L120.5,16z M102.7,24.5h2V11.3h-2V24.5z"/>
		<g id="Group_2951" transform="translate(0 0.301)">
			<g id="Group_2950" transform="translate(0 0)">
				<g id="Group_2949">
					<path id="Path_4651" class="st3" d="M0.5,0.4C0.1,0.8,0,1.4,0,1.9v23.4c0,0.5,0.1,1.1,0.5,1.5l0.1,0.1l13.1-13.1v-0.3L0.5,0.4
						L0.5,0.4z"/>
					
						<linearGradient id="Path_4652_1_" gradientUnits="userSpaceOnUse" x1="-133.3008" y1="280.9673" x2="-135.6818" y2="280.9673" gradientTransform="matrix(10.7565 0 0 -9.047 1456.214 2555.5183)">
						<stop  offset="0" style="stop-color:#FFD700"/>
						<stop  offset="7.500000e-02" style="stop-color:#FECE00"/>
						<stop  offset="0.48" style="stop-color:#FCA704"/>
						<stop  offset="0.803" style="stop-color:#FA8E07"/>
						<stop  offset="1" style="stop-color:#FA8608"/>
					</linearGradient>
					<path id="Path_4652" class="st4" d="M18,18.1l-4.4-4.4v-0.3L18,9.1l0.1,0.1l5.2,2.9c1.5,0.8,1.5,2.2,0,3.1l-5.2,2.9L18,18.1z"
						/>
					
						<linearGradient id="Path_4653_1_" gradientUnits="userSpaceOnUse" x1="-138.5144" y1="291.5276" x2="-139.8774" y2="289.7576" gradientTransform="matrix(17.656 0 0 -13.6169 2461.3206 3985.7344)">
						<stop  offset="0" style="stop-color:#E82B36"/>
						<stop  offset="1" style="stop-color:#B4005A"/>
					</linearGradient>
					<path id="Path_4653" class="st5" d="M18.1,18.1l-4.5-4.5L0.5,26.8c0.6,0.5,1.5,0.6,2.2,0.1L18.1,18.1"/>
					
						<linearGradient id="Path_4654_1_" gradientUnits="userSpaceOnUse" x1="-139.8837" y1="292.66" x2="-138.7707" y2="291.2151" gradientTransform="matrix(17.656 0 0 -13.6159 2461.3188 3971.8079)">
						<stop  offset="0" style="stop-color:#2F8E5B"/>
						<stop  offset="0.39" style="stop-color:#4EA157"/>
						<stop  offset="0.768" style="stop-color:#67B054"/>
						<stop  offset="1" style="stop-color:#70B653"/>
					</linearGradient>
					<path id="Path_4654" class="st6" d="M18.1,9.1L2.7,0.4C2-0.2,1.1-0.1,0.5,0.4l13.2,13.2L18.1,9.1z"/>
				</g>
			</g>
		</g>
	</g>
</g>
</svg>
