<?xml version="1.0" encoding="utf-8"?>
<!-- Generator: Adobe Illustrator 25.2.1, SVG Export Plug-In . SVG Version: 6.00 Build 0)  -->
<svg version="1.1" id="圖層_1" xmlns="http://www.w3.org/2000/svg" xmlns:xlink="http://www.w3.org/1999/xlink" x="0px" y="0px"
	 viewBox="0 0 128 42" style="enable-background:new 0 0 128 42;" xml:space="preserve">
<style type="text/css">
	.st0{fill:#E56D6D;fill-opacity:0;}
	.st1{fill:#FFFFFF;}
</style>
<g id="icon_app_apple" transform="translate(-225 -1475)">
	<rect id="Rectangle_3368" x="225" y="1475" class="st0" width="128" height="42"/>
	<g id="Group_2959" transform="translate(230.765 1479.86)">
		<g id="Group_2955" transform="translate(0 0)">
			<g id="Group_2954" transform="translate(0 0)">
				<path id="Path_4656" class="st1" d="M18.4,14.4c0-2.1,1.1-4,2.9-5.2c-1.1-1.6-3-2.6-5-2.7c-2.1-0.2-4.1,1.2-5.2,1.2
					c-1.1,0-2.7-1.2-4.5-1.2C4.4,6.7,2.3,8,1.1,10c-2.4,4.2-0.6,10.3,1.7,13.6C4,25.2,5.3,27.1,7.1,27c1.7-0.1,2.4-1.1,4.4-1.1
					c2.1,0,2.7,1.1,4.5,1.1c1.8,0,3-1.7,4.1-3.3c0.8-1.2,1.5-2.5,1.9-3.8C19.8,18.9,18.4,16.7,18.4,14.4z"/>
				<path id="Path_4657" class="st1" d="M15,4.3c1-1.2,1.5-2.8,1.4-4.3c-1.5,0.2-3,0.9-4,2.1c-1,1.1-1.5,2.6-1.4,4.2
					C12.5,6.2,14,5.5,15,4.3z"/>
			</g>
		</g>
		<g id="Group_2956" transform="translate(31.361 12.474)">
			<path id="Path_4658" class="st1" d="M11.9,14.3H9.5l-1.3-4.1H3.6l-1.3,4.1H0L4.5,0.2h2.8L11.9,14.3z M7.8,8.4L6.6,4.7
				C6.5,4.4,6.2,3.5,5.9,2.1h0C5.7,2.7,5.5,3.6,5.2,4.7L4,8.4L7.8,8.4z"/>
			<path id="Path_4659" class="st1" d="M23.6,9.1c0.1,1.5-0.4,3-1.4,4.1c-0.8,0.9-1.9,1.4-3.1,1.3c-1.2,0.1-2.3-0.5-2.9-1.4h0v5.4
				h-2.3v-11c0-1.1,0-2.2-0.1-3.3h2l0.1,1.6h0c1.2-1.9,3.7-2.4,5.6-1.2c0.3,0.2,0.6,0.5,0.9,0.8C23.2,6.4,23.6,7.7,23.6,9.1z
				 M21.3,9.2c0-0.9-0.2-1.7-0.7-2.4c-0.4-0.6-1.2-1-2-1c-0.6,0-1.1,0.2-1.5,0.6c-0.5,0.4-0.8,0.9-0.9,1.5c-0.1,0.2-0.1,0.5-0.1,0.7
				v1.7c0,0.7,0.2,1.4,0.7,1.9c0.4,0.5,1.1,0.8,1.8,0.8c0.8,0,1.5-0.3,2-1C21.1,11,21.3,10.1,21.3,9.2L21.3,9.2z"/>
			<path id="Path_4660" class="st1" d="M35.2,9.1c0.1,1.5-0.4,3-1.4,4.1c-0.8,0.9-1.9,1.4-3.1,1.3c-1.2,0.1-2.3-0.5-2.9-1.4h0v5.4
				h-2.3v-11c0-1.1,0-2.2-0.1-3.3h2l0.1,1.6h0c1.2-1.9,3.7-2.4,5.6-1.2c0.3,0.2,0.6,0.5,0.9,0.8C34.9,6.4,35.3,7.7,35.2,9.1z
				 M32.9,9.2c0-0.9-0.2-1.7-0.7-2.4c-0.4-0.6-1.2-1-2-1c-0.6,0-1.1,0.2-1.5,0.6c-0.5,0.4-0.8,0.9-0.9,1.5c-0.1,0.2-0.1,0.5-0.1,0.7
				v1.7c0,0.7,0.2,1.4,0.7,1.9c0.4,0.5,1.1,0.8,1.8,0.8c0.8,0,1.5-0.3,2-1C32.7,11,33,10.1,32.9,9.2L32.9,9.2z"/>
			<path id="Path_4661" class="st1" d="M48.3,10.3c0,1.1-0.4,2.2-1.3,2.9c-1.1,0.9-2.4,1.3-3.8,1.2c-1.3,0.1-2.5-0.2-3.7-0.9
				l0.5-1.9c1,0.6,2.1,0.9,3.3,0.9c0.7,0,1.4-0.2,2-0.6c0.5-0.4,0.7-0.9,0.7-1.5c0-0.5-0.2-1.1-0.6-1.4c-0.6-0.5-1.2-0.9-1.9-1.1
				c-2.5-0.9-3.7-2.3-3.7-4c0-1.1,0.5-2.1,1.3-2.8c1-0.8,2.2-1.2,3.4-1.1c1.1,0,2.2,0.2,3.2,0.7l-0.6,1.8c-0.8-0.4-1.8-0.7-2.7-0.6
				c-0.7,0-1.3,0.2-1.9,0.6c-0.4,0.3-0.6,0.8-0.6,1.3c0,0.5,0.2,1,0.6,1.4c0.6,0.5,1.3,0.8,2,1.1c1,0.4,1.9,0.9,2.7,1.7
				C48,8.6,48.3,9.5,48.3,10.3z"/>
			<path id="Path_4662" class="st1" d="M55.8,5.8h-2.5v4.9c0,1.3,0.4,1.9,1.3,1.9c0.3,0,0.7,0,1-0.1l0.1,1.7
				c-0.6,0.2-1.2,0.3-1.8,0.2c-0.8,0-1.5-0.3-2.1-0.8c-0.6-0.8-0.8-1.8-0.8-2.7V5.8h-1.5V4.1h1.5V2.3l2.2-0.7v2.5h2.5L55.8,5.8z"/>
			<path id="Path_4663" class="st1" d="M67,9.1c0.1,1.4-0.4,2.8-1.3,3.8c-1,1-2.3,1.6-3.7,1.5c-1.3,0.1-2.7-0.5-3.6-1.5
				c-0.9-1-1.4-2.4-1.3-3.7c-0.1-1.4,0.4-2.8,1.4-3.9c0.9-1,2.3-1.6,3.7-1.5c1.4-0.1,2.7,0.5,3.6,1.5C66.6,6.4,67.1,7.8,67,9.1z
				 M64.7,9.2c0-0.8-0.2-1.7-0.6-2.4c-0.4-0.8-1.2-1.2-2-1.2c-0.9,0-1.7,0.4-2.1,1.2c-0.4,0.7-0.6,1.6-0.6,2.5
				c0,0.8,0.2,1.7,0.6,2.4c0.4,0.8,1.2,1.2,2.1,1.2c0.9,0,1.6-0.5,2-1.2C64.5,10.9,64.7,10.1,64.7,9.2L64.7,9.2z"/>
			<path id="Path_4664" class="st1" d="M74.3,6.1c-0.2,0-0.5-0.1-0.7-0.1c-0.7,0-1.4,0.3-1.8,0.9c-0.4,0.6-0.6,1.3-0.6,2v5.3H69l0-7
				c0-1.2,0-2.2-0.1-3.2h2L71,6.1H71c0.2-0.6,0.6-1.2,1.1-1.6c0.5-0.4,1-0.5,1.6-0.5c0.2,0,0.4,0,0.6,0V6.1z"/>
			<path id="Path_4665" class="st1" d="M84.4,8.7c0,0.3,0,0.7-0.1,1h-6.8c0,0.9,0.3,1.7,1,2.3c0.6,0.5,1.4,0.7,2.2,0.7
				c0.9,0,1.9-0.2,2.7-0.5l0.4,1.6c-1.1,0.4-2.2,0.7-3.4,0.6c-1.4,0.1-2.7-0.4-3.7-1.4c-0.9-1-1.4-2.4-1.3-3.7
				c-0.1-1.4,0.4-2.7,1.3-3.8c0.9-1.1,2.2-1.7,3.6-1.6c1.3-0.1,2.6,0.5,3.3,1.6C84.2,6.5,84.5,7.6,84.4,8.7z M82.3,8.2
				c0-0.6-0.1-1.2-0.4-1.7c-0.4-0.6-1.1-1-1.8-0.9c-0.7,0-1.4,0.3-1.8,0.9c-0.4,0.5-0.6,1.1-0.7,1.8L82.3,8.2z"/>
		</g>
		<g id="Group_2958" transform="translate(32.701 0.359)">
			<g id="Group_2957" transform="translate(0 0)">
				<path id="Path_4666" class="st1" d="M5.7,3.7c0.1,1.1-0.3,2.1-1.1,2.8C3.7,7.1,2.7,7.4,1.6,7.3c-0.5,0-1.1,0-1.6-0.1V0.5
					c0.6-0.1,1.3-0.1,1.9-0.1c1-0.1,2,0.2,2.7,0.8C5.4,1.8,5.8,2.7,5.7,3.7z M4.5,3.7c0-0.7-0.2-1.4-0.6-1.9C3.4,1.4,2.7,1.1,2,1.2
					c-0.3,0-0.6,0-0.9,0.1v5.2c0.2,0,0.5,0,0.8,0c0.7,0,1.4-0.2,2-0.7C4.3,5.2,4.6,4.4,4.5,3.7L4.5,3.7z"/>
				<path id="Path_4667" class="st1" d="M11.9,4.7c0,0.7-0.2,1.4-0.7,1.9c-0.5,0.5-1.1,0.8-1.8,0.8c-0.7,0-1.3-0.2-1.8-0.7
					C7.2,6.2,7,5.5,7,4.8c0-0.7,0.2-1.4,0.7-1.9c0.5-0.5,1.1-0.8,1.8-0.7c0.7,0,1.3,0.2,1.8,0.7C11.7,3.4,11.9,4.1,11.9,4.7z
					 M10.7,4.8c0-0.4-0.1-0.8-0.3-1.2C10.3,3.2,9.9,3,9.4,3C9,3,8.6,3.2,8.4,3.6C8.2,4,8.1,4.4,8.1,4.8c0,0.4,0.1,0.8,0.3,1.2
					c0.3,0.6,1,0.8,1.5,0.5c0.2-0.1,0.4-0.3,0.5-0.5C10.6,5.6,10.7,5.2,10.7,4.8z"/>
				<path id="Path_4668" class="st1" d="M20.2,2.3l-1.6,5h-1L17,5.1c-0.2-0.5-0.3-1.1-0.4-1.6h0c-0.1,0.5-0.2,1.1-0.4,1.6l-0.7,2.2
					h-1l-1.5-5h1.1l0.6,2.4c0.1,0.6,0.2,1.1,0.3,1.6h0c0.1-0.4,0.2-0.9,0.4-1.6l0.7-2.4h0.9l0.7,2.3c0.2,0.6,0.3,1.1,0.4,1.6h0
					c0.1-0.6,0.2-1.1,0.3-1.6l0.6-2.3L20.2,2.3z"/>
				<path id="Path_4669" class="st1" d="M26,7.3h-1.1V4.4c0-0.9-0.3-1.3-1-1.3c-0.3,0-0.6,0.1-0.8,0.4c-0.2,0.2-0.3,0.5-0.3,0.9v3
					h-1.1V3.7c0-0.4,0-0.9,0-1.4h1l0.1,0.8h0c0.1-0.2,0.3-0.5,0.6-0.6c0.3-0.2,0.6-0.3,1-0.3c0.4,0,0.9,0.1,1.2,0.5
					c0.4,0.4,0.6,1,0.6,1.7L26,7.3z"/>
				<path id="Path_4670" class="st1" d="M29,7.3h-1.1V0H29V7.3z"/>
				<path id="Path_4671" class="st1" d="M35.6,4.7c0,0.7-0.2,1.4-0.7,1.9c-0.5,0.5-1.1,0.8-1.8,0.8c-0.7,0-1.3-0.2-1.8-0.7
					c-0.4-0.5-0.7-1.2-0.7-1.8c0-0.7,0.2-1.4,0.7-1.9c0.5-0.5,1.1-0.8,1.8-0.7c0.7,0,1.3,0.2,1.8,0.7C35.4,3.4,35.6,4.1,35.6,4.7z
					 M34.4,4.8c0-0.4-0.1-0.8-0.3-1.2c-0.2-0.4-0.6-0.6-1-0.6c-0.4,0-0.8,0.2-1,0.6c-0.2,0.4-0.3,0.8-0.3,1.2c0,0.4,0.1,0.8,0.3,1.2
					c0.2,0.4,0.6,0.6,1,0.6c0.4,0,0.8-0.2,1-0.6C34.3,5.6,34.4,5.2,34.4,4.8z"/>
				<path id="Path_4672" class="st1" d="M40.9,7.3h-1l-0.1-0.6h0c-0.3,0.5-0.9,0.7-1.5,0.7c-0.4,0-0.8-0.1-1.1-0.5
					c-0.3-0.3-0.4-0.6-0.4-1c0-0.6,0.3-1.1,0.8-1.4C38.3,4.2,39,4,39.7,4.1V4c0-0.7-0.3-1-1-1c-0.5,0-0.9,0.1-1.3,0.4l-0.2-0.7
					c0.5-0.3,1.1-0.5,1.7-0.4c1.3,0,2,0.7,2,2.1v1.8C40.8,6.5,40.9,6.9,40.9,7.3z M39.8,5.6V4.8c-1.2,0-1.8,0.3-1.8,1
					c0,0.2,0.1,0.4,0.2,0.6c0.1,0.1,0.3,0.2,0.5,0.2c0.2,0,0.5-0.1,0.7-0.2c0.2-0.1,0.3-0.4,0.4-0.6C39.8,5.7,39.8,5.6,39.8,5.6z"/>
				<path id="Path_4673" class="st1" d="M47.2,7.3h-1l-0.1-0.8h0c-0.3,0.6-0.9,1-1.6,0.9c-0.6,0-1.1-0.3-1.5-0.7
					c-0.4-0.5-0.6-1.2-0.6-1.8c0-0.7,0.2-1.4,0.6-2c0.4-0.5,0.9-0.7,1.5-0.7c0.6-0.1,1.1,0.2,1.4,0.7h0V0h1.1v5.9
					C47.2,6.4,47.2,6.9,47.2,7.3z M46.1,5.2V4.3c0-0.1,0-0.2,0-0.3c-0.1-0.3-0.2-0.5-0.4-0.7c-0.2-0.2-0.5-0.3-0.7-0.3
					c-0.4,0-0.8,0.2-1,0.5c-0.2,0.4-0.4,0.8-0.4,1.3c0,0.4,0.1,0.8,0.3,1.2c0.2,0.3,0.6,0.5,1,0.5c0.3,0,0.7-0.1,0.9-0.4
					C46,5.8,46.1,5.5,46.1,5.2L46.1,5.2z"/>
				<path id="Path_4674" class="st1" d="M56.7,4.7c0,0.7-0.2,1.4-0.7,1.9c-0.5,0.5-1.1,0.8-1.8,0.8c-0.7,0-1.3-0.2-1.8-0.7
					c-0.4-0.5-0.7-1.2-0.7-1.8c0-0.7,0.2-1.4,0.7-1.9c0.5-0.5,1.1-0.8,1.8-0.7c0.7,0,1.3,0.2,1.8,0.7C56.5,3.4,56.8,4.1,56.7,4.7z
					 M55.6,4.8c0-0.4-0.1-0.8-0.3-1.2c-0.2-0.4-0.6-0.6-1-0.6c-0.4,0-0.8,0.2-1,0.6C53,4,52.9,4.4,53,4.8c0,0.4,0.1,0.8,0.3,1.2
					c0.3,0.6,1,0.8,1.5,0.5C55,6.3,55.2,6.2,55.3,6C55.5,5.6,55.6,5.2,55.6,4.8z"/>
				<path id="Path_4675" class="st1" d="M62.7,7.3h-1.1V4.4c0-0.9-0.3-1.3-1-1.3c-0.3,0-0.6,0.1-0.8,0.4c-0.2,0.2-0.3,0.5-0.3,0.9v3
					h-1.1V3.7c0-0.4,0-0.9,0-1.4h1l0.1,0.8h0c0.1-0.2,0.3-0.5,0.6-0.6c0.3-0.2,0.7-0.3,1-0.3c0.4,0,0.9,0.1,1.2,0.5
					c0.4,0.4,0.6,1,0.6,1.7L62.7,7.3z"/>
				<path id="Path_4676" class="st1" d="M70.2,3.1h-1.2v2.4c0,0.6,0.2,0.9,0.6,0.9c0.2,0,0.3,0,0.5-0.1l0,0.8
					c-0.3,0.1-0.6,0.1-0.9,0.1c-0.4,0-0.8-0.1-1-0.4c-0.3-0.4-0.4-0.9-0.4-1.3V3.1h-0.7V2.3h0.7V1.4L68.9,1v1.2h1.2V3.1z"/>
				<path id="Path_4677" class="st1" d="M76,7.3h-1.1V4.4c0-0.9-0.3-1.3-1-1.3c-0.5,0-0.9,0.3-1.1,0.8c0,0.1-0.1,0.3-0.1,0.4v3h-1.1
					V0h1.1v3h0c0.3-0.5,0.9-0.8,1.5-0.8c0.4,0,0.8,0.2,1.1,0.5c0.4,0.5,0.6,1.1,0.6,1.7L76,7.3z"/>
				<path id="Path_4678" class="st1" d="M82.1,4.6c0,0.2,0,0.3,0,0.5h-3.3c0,0.4,0.2,0.8,0.5,1.1c0.3,0.2,0.7,0.4,1.1,0.3
					c0.5,0,0.9-0.1,1.3-0.2l0.2,0.8c-0.5,0.2-1.1,0.3-1.7,0.3c-0.7,0-1.3-0.2-1.8-0.7c-0.5-0.5-0.7-1.2-0.7-1.8
					c0-0.7,0.2-1.3,0.6-1.9c0.4-0.5,1.1-0.8,1.7-0.8c0.6,0,1.3,0.3,1.6,0.8C82,3.4,82.1,4,82.1,4.6z M81,4.3C81,4,81,3.7,80.8,3.4
					c-0.2-0.3-0.5-0.5-0.9-0.5c-0.4,0-0.7,0.2-0.9,0.5c-0.2,0.3-0.3,0.6-0.3,0.9H81z"/>
			</g>
		</g>
	</g>
</g>
</svg>
