<svg width="6" height="127" viewBox="0 0 6 127" fill="none" xmlns="http://www.w3.org/2000/svg">
<path fill-rule="evenodd" clip-rule="evenodd" d="M0.333323 3.63566C0.333323 2.1629 1.52723 0.968994 2.99999 0.968994C4.47275 0.968994 5.66666 2.1629 5.66666 3.63566C5.66666 4.93752 4.73375 6.02149 3.49999 6.25553L3.49998 121.016C4.73375 121.25 5.66665 122.334 5.66665 123.636C5.66665 125.108 4.47274 126.302 2.99998 126.302C1.52722 126.302 0.333318 125.108 0.333318 123.636C0.333318 122.334 1.26622 121.25 2.49998 121.016L2.49999 6.25553C1.26623 6.02149 0.333323 4.93752 0.333323 3.63566Z" fill="url(#paint0_linear_818_1430)"/>
<defs>
<linearGradient id="paint0_linear_818_1430" x1="2.5" y1="3.63574" x2="2.49999" y2="123.636" gradientUnits="userSpaceOnUse">
<stop stop-color="#03AFF0"/>
<stop offset="1" stop-color="#9438CC"/>
</linearGradient>
</defs>
</svg>
