<svg width="6" height="200" viewBox="0 0 6 200" fill="none" xmlns="http://www.w3.org/2000/svg">
<path fill-rule="evenodd" clip-rule="evenodd" d="M9.90004e-06 2.5974C9.96275e-06 1.1629 1.19392 -1.8094e-07 2.66668 -1.16564e-07C4.13944 -5.21873e-08 5.33334 1.1629 5.33334 2.5974C5.33334 3.86545 4.40044 4.92126 3.16668 5.14922L3.16667 194.851C4.40043 195.079 5.33333 196.135 5.33333 197.403C5.33333 198.837 4.13943 200 2.66667 200C1.19391 200 1.32214e-06 198.837 1.38484e-06 197.403C1.44027e-06 196.135 0.932905 195.079 2.16667 194.851L2.16668 5.14922C0.932913 4.92126 9.84462e-06 3.86545 9.90004e-06 2.5974Z" fill="url(#paint0_linear_818_1424)"/>
<defs>
<linearGradient id="paint0_linear_818_1424" x1="2.66668" y1="-1.16564e-07" x2="2.66667" y2="200" gradientUnits="userSpaceOnUse">
<stop stop-color="#03AFF0"/>
<stop offset="1" stop-color="#9438CC"/>
</linearGradient>
</defs>
</svg>
